<svg width="24" height="24" viewBox="0 0 24 24" fill="none" xmlns="http://www.w3.org/2000/svg">
<g id="noto-v1:pen">
<path id="Vector" d="M12.1556 8.68125L5.11686 17.3531C5.07374 17.4056 5.03999 17.4656 5.01561 17.5294L4.10061 19.9312C3.89811 20.4637 4.40436 20.9906 4.88811 20.745L7.14186 19.5994C7.20561 19.5675 7.26561 19.5206 7.31436 19.4662L15.0169 10.8037C15.15 10.6556 15.2062 10.4456 15.1687 10.2431C15.0319 9.50062 14.49 7.84875 12.4219 8.49375C12.3187 8.52562 12.2269 8.59312 12.1556 8.68125Z" fill="#BCAAA4"/>
<path id="Vector_2" d="M7.14187 19.6013L4.88812 20.7469C4.40624 20.9925 3.89812 20.4656 4.10062 19.9331L5.01562 17.5312L7.14187 19.6013Z" fill="#BDBDBD"/>
<path id="Vector_3" d="M12 8.68688C12.9638 7.62938 16.6744 3.69563 18.8869 2.72813C19.725 2.36063 20.7788 3.00375 20.5106 4.04813C20.1394 5.48625 14.955 11.4056 14.955 11.4056C14.8481 11.5425 14.4431 11.6381 14.3213 11.5875C14.28 11.5706 14.4338 11.4825 14.4038 11.4338L14.3813 11.3419C14.3625 11.2669 14.3325 11.1938 14.2913 11.1281C13.7738 10.3125 13.0519 9.765 12.0975 9.32813C11.9925 9.27938 11.64 9.28125 11.64 9.28125C11.64 9.015 11.85 8.85188 12 8.68688Z" fill="black"/>
<path id="Vector_4" d="M4.2694 19.545L4.01815 20.1675C3.8419 20.6025 4.28253 21.0319 4.69878 20.8312L5.35128 20.52L4.2694 19.545Z" fill="#212121"/>
<path id="Vector_5" d="M9.7669 15.3844L9.67127 15.2963C9.63976 15.2673 9.62076 15.2272 9.61831 15.1845C9.61586 15.1418 9.63015 15.0998 9.65815 15.0675L13.2975 10.9181C13.3113 10.9025 13.328 10.8898 13.3466 10.8808C13.3653 10.8717 13.3856 10.8663 13.4064 10.8651C13.4271 10.8639 13.4479 10.8668 13.4675 10.8736C13.4871 10.8805 13.5052 10.8911 13.5206 10.905L13.6163 10.9931C13.6819 11.0531 13.6875 11.1562 13.6294 11.2219L9.99002 15.3731C9.97629 15.3888 9.95955 15.4015 9.94079 15.4106C9.92204 15.4197 9.90165 15.4249 9.88084 15.426C9.86003 15.427 9.83923 15.4239 9.81965 15.4167C9.80008 15.4096 9.78214 15.3986 9.7669 15.3844Z" fill="#FAFAFA"/>
<path id="Vector_6" d="M12.0637 8.58C13.0275 7.5375 16.8581 3.41437 19.0706 2.45812C19.9087 2.09625 20.9625 2.72625 20.6943 3.75375C20.3231 5.16937 15.1987 11.1 15.1987 11.1C15.0562 11.28 14.7675 11.265 14.6493 11.07C14.1243 10.2019 13.3143 9.52687 12.345 9.14625L12.1856 9.08437C11.9737 9 11.9118 8.74312 12.0637 8.58Z" fill="#795548"/>
<path id="Vector_7" d="M17.0081 9.33375C18.2663 7.81687 19.29 6.75562 20.4506 4.94437C20.5556 4.77937 20.8144 5.01937 20.7131 5.19375C19.8638 6.69375 17.8388 8.99437 17.3194 9.58687C17.1881 9.735 16.8975 9.46687 17.0081 9.33375Z" fill="black"/>
<path id="Vector_8" d="M20.6644 5.30062C20.5706 5.43 20.3869 5.45812 20.2575 5.36437L19.9763 5.16C19.9141 5.11429 19.8726 5.04588 19.8606 4.96968C19.8487 4.89348 19.8673 4.81565 19.9125 4.75312C20.0063 4.62375 20.19 4.59562 20.3194 4.68937L20.6006 4.89375C20.7319 4.9875 20.76 5.17125 20.6644 5.30062Z" fill="black"/>
<path id="Vector_9" d="M5.01562 17.5294C5.01562 17.5294 5.0475 17.4563 5.0625 17.4338C5.07375 17.4131 5.11688 17.3531 5.11688 17.3531L7.31437 19.4663C7.31437 19.4663 7.25437 19.5263 7.22812 19.545C7.20375 19.5638 7.14188 19.5994 7.14188 19.5994L5.01562 17.5294Z" fill="white"/>
</g>
</svg>
